<?xml version="1.0" encoding="UTF-8"?>
<svg width="200" height="200" viewBox="0 0 200 200" xmlns="http://www.w3.org/2000/svg">
  <circle cx="100" cy="100" r="90" fill="#FFFF00" stroke="#0070C0" stroke-width="5"/>
  <path d="M60,60 L80,40 L140,40 L160,60 L160,140 L140,160 L80,160 L60,140 Z" fill="none" stroke="#0070C0" stroke-width="3"/>
  <text x="100" y="115" font-family="Arial, sans-serif" font-size="50" font-weight="bold" text-anchor="middle" fill="#0070C0">CSK</text>
  <path d="M70,70 C70,70 85,50 100,70 C115,50 130,70 130,70 C130,70 140,85 130,100 C140,115 130,130 130,130 C130,130 115,150 100,130 C85,150 70,130 70,130 C70,130 60,115 70,100 C60,85 70,70 70,70 Z" fill="none" stroke="#0070C0" stroke-width="2"/>
</svg>
