<?xml version="1.0" encoding="UTF-8"?>
<svg width="200" height="200" viewBox="0 0 200 200" xmlns="http://www.w3.org/2000/svg">
  <circle cx="100" cy="100" r="90" fill="#C8102E" stroke="#000000" stroke-width="5"/>
  <path d="M70,60 L130,60 L140,70 L140,130 L130,140 L70,140 L60,130 L60,70 Z" fill="none" stroke="#FFFFFF" stroke-width="3"/>
  <text x="100" y="115" font-family="Arial, sans-serif" font-size="50" font-weight="bold" text-anchor="middle" fill="#FFFFFF">RCB</text>
  <path d="M80,80 C80,80 90,70 100,80 C110,70 120,80 120,80 C120,80 125,90 120,100 C125,110 120,120 120,120 C120,120 110,130 100,120 C90,130 80,120 80,120 C80,120 75,110 80,100 C75,90 80,80 80,80 Z" fill="none" stroke="#FFFFFF" stroke-width="2"/>
</svg>
